<svg width="222" height="100" viewBox="0 0 222 100" fill="none" xmlns="http://www.w3.org/2000/svg">
<path d="M204.689 47.7159L199.559 51.4829L204.66 55.4484L203.341 66.0557L207.644 55.5063L221.727 51.9129L207.673 47.7738L203.45 37.0589L204.689 47.7159Z" fill="#0D8BF6"/>
<path fill-rule="evenodd" clip-rule="evenodd" d="M34 50.5C34 51.163 34.2115 51.7989 34.5878 52.2678C34.9642 52.7366 35.4747 53 36.007 53H88.993C89.5253 53 90.0358 52.7366 90.4122 52.2678C90.7885 51.7989 91 51.163 91 50.5C91 49.837 90.7885 49.2011 90.4122 48.7322C90.0358 48.2634 89.5253 48 88.993 48H36.007C35.4747 48 34.9642 48.2634 34.5878 48.7322C34.2115 49.2011 34 49.837 34 50.5Z" fill="black"/>
<path fill-rule="evenodd" clip-rule="evenodd" d="M23 31L39 48H83L67 31H23Z" fill="#0D8BF6"/>
<path fill-rule="evenodd" clip-rule="evenodd" d="M67 70L83 53H39L23 70H67Z" fill="#0D8BF6"/>
<path d="M102.512 56.5664C102.512 56.776 102.53 56.9765 102.566 57.1679C102.612 57.3502 102.694 57.5097 102.812 57.6465C102.94 57.7832 103.109 57.8925 103.318 57.9746C103.537 58.0566 103.82 58.0976 104.166 58.0976C104.667 58.0976 105.128 57.9563 105.547 57.6738C105.966 57.3821 106.326 57.013 106.627 56.5664C106.928 56.1106 107.16 55.6048 107.324 55.0488C107.488 54.4837 107.57 53.9231 107.57 53.3672C107.57 52.5377 107.456 51.8086 107.229 51.1797C107.01 50.5416 106.7 50.0039 106.299 49.5664C105.898 49.1289 105.424 48.7916 104.877 48.5547C104.33 48.3086 103.738 48.1673 103.1 48.1308L103.373 47.4336C103.774 47.4518 104.157 47.3971 104.521 47.2695C104.886 47.1419 105.205 46.9186 105.479 46.5996C105.761 46.2806 105.984 45.8522 106.148 45.3144C106.312 44.7675 106.395 44.084 106.395 43.2636C106.395 42.7077 106.326 42.2063 106.189 41.7597C106.053 41.3131 105.87 40.9394 105.643 40.6386C105.424 40.3287 105.164 40.0918 104.863 39.9277C104.572 39.7636 104.271 39.6816 103.961 39.6816C103.77 39.6816 103.583 39.7044 103.4 39.75C103.227 39.7955 103.072 39.873 102.936 39.9824C102.808 40.0918 102.703 40.2376 102.621 40.4199C102.548 40.5931 102.512 40.8118 102.512 41.0761V56.5664ZM102.785 38.5605C105.428 38.5605 107.37 38.9752 108.609 39.8047C109.858 40.625 110.482 41.8235 110.482 43.4004C110.482 43.7923 110.437 44.1523 110.346 44.4804C110.264 44.8086 110.154 45.1093 110.018 45.3828C109.881 45.6471 109.726 45.8841 109.553 46.0937C109.38 46.3034 109.202 46.4856 109.02 46.6406C108.591 47.0143 108.108 47.306 107.57 47.5156V47.7207C108.418 47.8209 109.179 48.0761 109.854 48.4863C110.136 48.6595 110.414 48.8782 110.688 49.1425C110.961 49.3978 111.202 49.7122 111.412 50.0859C111.631 50.4505 111.804 50.8789 111.932 51.3711C112.068 51.8541 112.137 52.4101 112.137 53.039C112.137 53.9961 111.964 54.8574 111.617 55.623C111.271 56.3886 110.756 57.0403 110.072 57.5781C109.389 58.1067 108.536 58.5123 107.516 58.7949C106.495 59.0774 105.31 59.2187 103.961 59.2187C102.712 59.2187 101.696 59.1412 100.912 58.9863C100.128 58.8313 99.5176 58.608 99.0801 58.3164C98.6426 58.0156 98.3418 57.6556 98.1777 57.2363C98.0228 56.817 97.9453 56.3431 97.9453 55.8144V40.8574C97.9453 40.3561 97.599 40.1054 96.9062 40.1054C96.4049 40.1054 95.8945 40.1829 95.375 40.3379C94.8646 40.4837 94.3997 40.6888 93.9805 40.9531C93.5703 41.2083 93.2331 41.5182 92.9688 41.8828C92.7044 42.2383 92.5723 42.6256 92.5723 43.0449C92.5723 43.3366 92.6087 43.569 92.6816 43.7422C92.7637 43.9153 92.8548 44.0475 92.9551 44.1386C93.0553 44.2207 93.1556 44.2754 93.2559 44.3027C93.3652 44.3209 93.4427 44.33 93.4883 44.33C93.7161 44.33 93.903 44.2936 94.0488 44.2207C94.1947 44.1386 94.3268 44.0566 94.4453 43.9746C94.5638 43.8834 94.6732 43.8014 94.7734 43.7285C94.8828 43.6465 95.0059 43.6054 95.1426 43.6054C95.252 43.6054 95.3659 43.6328 95.4844 43.6875C95.612 43.733 95.7259 43.8105 95.8262 43.9199C95.9355 44.0293 96.0267 44.1751 96.0996 44.3574C96.1725 44.5306 96.209 44.7448 96.209 45C96.209 45.3646 96.1361 45.679 95.9902 45.9433C95.8535 46.2077 95.6712 46.431 95.4434 46.6133C95.2246 46.7864 94.9694 46.9186 94.6777 47.0097C94.3952 47.0918 94.1126 47.1328 93.8301 47.1328C93.3926 47.1328 92.9961 47.0599 92.6406 46.914C92.2943 46.7591 91.998 46.5494 91.752 46.2851C91.5059 46.0208 91.319 45.7109 91.1914 45.3554C91.0638 45 91 44.6217 91 44.2207C91 43.4642 91.1413 42.7988 91.4238 42.2246C91.7064 41.6412 92.1029 41.1399 92.6133 40.7207C93.1328 40.3014 93.7526 39.955 94.4727 39.6816C95.1927 39.3991 95.9902 39.1758 96.8652 39.0117C97.7402 38.8476 98.6745 38.7337 99.668 38.6699C100.671 38.597 101.71 38.5605 102.785 38.5605ZM118.918 47.4062C119.255 46.9231 119.638 46.4902 120.066 46.1074C120.24 45.9433 120.431 45.7838 120.641 45.6289C120.859 45.4739 121.087 45.3372 121.324 45.2187C121.57 45.0911 121.826 44.9909 122.09 44.9179C122.363 44.845 122.641 44.8086 122.924 44.8086C123.535 44.8086 124.081 44.9271 124.564 45.164C125.048 45.401 125.453 45.7975 125.781 46.3535C126.109 46.9095 126.36 47.6478 126.533 48.5683C126.706 49.4798 126.793 50.6146 126.793 51.9726C126.793 53.2942 126.674 54.4427 126.438 55.4179C126.201 56.3932 125.891 57.2226 125.508 57.9062C125.125 58.5898 124.692 59.1458 124.209 59.5742C123.726 60.0117 123.238 60.3535 122.746 60.5996C122.254 60.8457 121.78 61.0143 121.324 61.1054C120.868 61.2057 120.477 61.2604 120.148 61.2695L120.012 60.709C120.422 60.6087 120.786 60.4218 121.105 60.1484C121.424 59.875 121.693 59.4284 121.912 58.8086C122.131 58.1797 122.295 57.3366 122.404 56.2793C122.523 55.222 122.582 53.8593 122.582 52.1914C122.582 51.0429 122.527 50.1269 122.418 49.4433C122.318 48.7506 122.181 48.2265 122.008 47.8711C121.844 47.5065 121.652 47.2695 121.434 47.1601C121.224 47.0416 121.01 46.9824 120.791 46.9824C120.527 46.9824 120.294 47.0553 120.094 47.2011C119.893 47.3379 119.715 47.4974 119.561 47.6797C119.415 47.8619 119.287 48.0442 119.178 48.2265C119.077 48.4088 118.991 48.5455 118.918 48.6367V57.7695C118.918 57.888 118.9 58.0338 118.863 58.207C118.827 58.3711 118.736 58.5306 118.59 58.6855C118.453 58.8313 118.243 58.9544 117.961 59.0547C117.688 59.164 117.309 59.2187 116.826 59.2187C116.343 59.2187 115.96 59.1595 115.678 59.041C115.395 58.9316 115.181 58.7994 115.035 58.6445C114.898 58.4896 114.812 58.33 114.775 58.166C114.739 58.0019 114.721 57.8698 114.721 57.7695V40.1328C114.721 39.8685 114.657 39.6406 114.529 39.4492C114.411 39.2487 114.206 39.1484 113.914 39.1484C113.759 39.1484 113.622 39.1758 113.504 39.2304C113.395 39.276 113.276 39.3489 113.148 39.4492L112.875 39.1211C113.085 38.9479 113.317 38.7793 113.572 38.6152C113.827 38.442 114.105 38.2916 114.406 38.164C114.716 38.0364 115.044 37.9316 115.391 37.8496C115.737 37.7675 116.102 37.7265 116.484 37.7265C117.077 37.7265 117.537 37.8086 117.865 37.9726C118.193 38.1276 118.435 38.3235 118.59 38.5605C118.745 38.7884 118.836 39.0345 118.863 39.2988C118.9 39.554 118.918 39.7819 118.918 39.9824V47.4062ZM133.984 57.7695C133.984 57.888 133.962 58.0338 133.916 58.207C133.88 58.3711 133.784 58.5306 133.629 58.6855C133.483 58.8313 133.269 58.9544 132.986 59.0547C132.704 59.164 132.321 59.2187 131.838 59.2187C131.355 59.2187 130.977 59.1595 130.703 59.041C130.43 58.9316 130.225 58.7994 130.088 58.6445C129.951 58.4896 129.865 58.33 129.828 58.166C129.801 58.0019 129.787 57.8698 129.787 57.7695V47.2148C129.787 46.9505 129.723 46.7226 129.596 46.5312C129.477 46.3307 129.272 46.2304 128.98 46.2304C128.826 46.2304 128.693 46.2578 128.584 46.3125C128.475 46.3672 128.356 46.4446 128.229 46.5449L127.941 46.2031C128.151 46.0299 128.383 45.8613 128.639 45.6972C128.903 45.5241 129.186 45.3737 129.486 45.2461C129.787 45.1185 130.111 45.0136 130.457 44.9316C130.803 44.8496 131.168 44.8086 131.551 44.8086C132.143 44.8086 132.604 44.8906 132.932 45.0547C133.26 45.2096 133.501 45.4056 133.656 45.6425C133.811 45.8704 133.902 46.1165 133.93 46.3808C133.966 46.6452 133.984 46.8776 133.984 47.0781V57.7695ZM129.363 41.6914C129.363 41.4362 129.418 41.1946 129.527 40.9668C129.646 40.7298 129.805 40.5247 130.006 40.3515C130.215 40.1784 130.452 40.0416 130.717 39.9414C130.99 39.8411 131.286 39.791 131.605 39.791C131.915 39.791 132.202 39.8411 132.467 39.9414C132.74 40.0416 132.977 40.1784 133.178 40.3515C133.378 40.5247 133.533 40.7298 133.643 40.9668C133.761 41.1946 133.82 41.4362 133.82 41.6914C133.82 41.9557 133.761 42.2018 133.643 42.4297C133.533 42.6575 133.378 42.858 133.178 43.0312C132.977 43.1953 132.74 43.3274 132.467 43.4277C132.202 43.528 131.915 43.5781 131.605 43.5781C131.286 43.5781 130.99 43.528 130.717 43.4277C130.452 43.3274 130.215 43.1953 130.006 43.0312C129.805 42.858 129.646 42.6575 129.527 42.4297C129.418 42.2018 129.363 41.9557 129.363 41.6914ZM141.832 45.9023C141.622 45.9023 141.422 45.9297 141.23 45.9843C141.048 46.039 140.884 46.1302 140.738 46.2578C140.592 46.3763 140.479 46.5312 140.396 46.7226C140.314 46.9049 140.273 47.1237 140.273 47.3789C140.273 47.7343 140.401 48.0898 140.656 48.4453C140.921 48.7916 141.244 49.1562 141.627 49.539C142.019 49.9127 142.438 50.3047 142.885 50.7148C143.34 51.1159 143.76 51.5442 144.143 52C144.535 52.4466 144.858 52.9251 145.113 53.4355C145.378 53.9459 145.51 54.4928 145.51 55.0761C145.51 55.7324 145.396 56.3157 145.168 56.8261C144.949 57.3366 144.63 57.7695 144.211 58.125C143.801 58.4804 143.299 58.7539 142.707 58.9453C142.124 59.1276 141.472 59.2187 140.752 59.2187C140.123 59.2187 139.553 59.1321 139.043 58.959C138.533 58.7767 138.077 58.5579 137.676 58.3027C137.284 58.0384 136.947 57.7604 136.664 57.4687C136.382 57.1771 136.163 56.9127 136.008 56.6758L136.486 56.334C136.605 56.4707 136.755 56.6211 136.938 56.7851C137.12 56.9401 137.32 57.0859 137.539 57.2226C137.767 57.3593 138.008 57.4733 138.264 57.5644C138.519 57.6465 138.779 57.6875 139.043 57.6875C139.699 57.6875 140.237 57.5325 140.656 57.2226C141.076 56.9036 141.285 56.4342 141.285 55.8144C141.285 55.4681 141.171 55.1126 140.943 54.748C140.715 54.3743 140.428 53.9915 140.082 53.5996C139.736 53.2077 139.362 52.8021 138.961 52.3828C138.56 51.9635 138.186 51.5306 137.84 51.084C137.493 50.6373 137.206 50.1771 136.979 49.7031C136.751 49.2291 136.637 48.7369 136.637 48.2265C136.637 47.6523 136.751 47.151 136.979 46.7226C137.215 46.2942 137.525 45.9388 137.908 45.6562C138.3 45.3737 138.742 45.164 139.234 45.0273C139.736 44.8815 140.251 44.8086 140.779 44.8086C141.39 44.8086 141.946 44.8633 142.447 44.9726C142.949 45.082 143.377 45.2506 143.732 45.4785C144.097 45.6972 144.375 45.9752 144.566 46.3125C144.767 46.6497 144.867 47.0416 144.867 47.4883C144.867 47.8346 144.753 48.1354 144.525 48.3906C144.298 48.6458 143.979 48.7734 143.568 48.7734C143.176 48.7734 142.876 48.6914 142.666 48.5273C142.465 48.3541 142.365 48.1217 142.365 47.83C142.365 47.6386 142.411 47.4883 142.502 47.3789C142.602 47.2695 142.712 47.1829 142.83 47.1191C142.949 47.0462 143.053 46.9869 143.145 46.9414C143.245 46.8867 143.295 46.8183 143.295 46.7363C143.295 46.4811 143.158 46.2806 142.885 46.1347C142.611 45.9798 142.26 45.9023 141.832 45.9023ZM152.004 47.4062C152.341 46.9231 152.724 46.4902 153.152 46.1074C153.326 45.9433 153.517 45.7838 153.727 45.6289C153.945 45.4739 154.173 45.3372 154.41 45.2187C154.656 45.0911 154.911 44.9909 155.176 44.9179C155.449 44.845 155.727 44.8086 156.01 44.8086C156.62 44.8086 157.167 44.9271 157.65 45.164C158.133 45.401 158.539 45.7975 158.867 46.3535C159.195 46.9095 159.446 47.6478 159.619 48.5683C159.792 49.4798 159.879 50.6146 159.879 51.9726C159.879 53.2942 159.76 54.4427 159.523 55.4179C159.286 56.3932 158.977 57.2226 158.594 57.9062C158.211 58.5898 157.778 59.1458 157.295 59.5742C156.812 60.0117 156.324 60.3535 155.832 60.5996C155.34 60.8457 154.866 61.0143 154.41 61.1054C153.954 61.2057 153.562 61.2604 153.234 61.2695L153.098 60.709C153.508 60.6087 153.872 60.4218 154.191 60.1484C154.51 59.875 154.779 59.4284 154.998 58.8086C155.217 58.1797 155.381 57.3366 155.49 56.2793C155.609 55.222 155.668 53.8593 155.668 52.1914C155.668 51.0429 155.613 50.1269 155.504 49.4433C155.404 48.7506 155.267 48.2265 155.094 47.8711C154.93 47.5065 154.738 47.2695 154.52 47.1601C154.31 47.0416 154.096 46.9824 153.877 46.9824C153.613 46.9824 153.38 47.0553 153.18 47.2011C152.979 47.3379 152.801 47.4974 152.646 47.6797C152.501 47.8619 152.373 48.0442 152.264 48.2265C152.163 48.4088 152.077 48.5455 152.004 48.6367V57.7695C152.004 57.888 151.986 58.0338 151.949 58.207C151.913 58.3711 151.822 58.5306 151.676 58.6855C151.539 58.8313 151.329 58.9544 151.047 59.0547C150.773 59.164 150.395 59.2187 149.912 59.2187C149.429 59.2187 149.046 59.1595 148.764 59.041C148.481 58.9316 148.267 58.7994 148.121 58.6445C147.984 58.4896 147.898 58.33 147.861 58.166C147.825 58.0019 147.807 57.8698 147.807 57.7695V40.1328C147.807 39.8685 147.743 39.6406 147.615 39.4492C147.497 39.2487 147.292 39.1484 147 39.1484C146.845 39.1484 146.708 39.1758 146.59 39.2304C146.48 39.276 146.362 39.3489 146.234 39.4492L145.961 39.1211C146.171 38.9479 146.403 38.7793 146.658 38.6152C146.913 38.442 147.191 38.2916 147.492 38.164C147.802 38.0364 148.13 37.9316 148.477 37.8496C148.823 37.7675 149.188 37.7265 149.57 37.7265C150.163 37.7265 150.623 37.8086 150.951 37.9726C151.279 38.1276 151.521 38.3235 151.676 38.5605C151.831 38.7884 151.922 39.0345 151.949 39.2988C151.986 39.554 152.004 39.7819 152.004 39.9824V47.4062ZM174.385 57.7968C174.385 57.9153 174.367 58.0566 174.33 58.2207C174.294 58.3847 174.202 58.5397 174.057 58.6855C173.92 58.8313 173.71 58.9544 173.428 59.0547C173.145 59.164 172.762 59.2187 172.279 59.2187C171.796 59.2187 171.413 59.1595 171.131 59.041C170.857 58.9316 170.648 58.7994 170.502 58.6445C170.365 58.4896 170.279 58.33 170.242 58.166C170.206 58.0019 170.188 57.8698 170.188 57.7695V48.1035C170.188 47.9759 170.169 47.8483 170.133 47.7207C170.096 47.584 170.042 47.4609 169.969 47.3515C169.896 47.2422 169.805 47.1556 169.695 47.0918C169.586 47.0188 169.458 46.9824 169.312 46.9824C169.066 46.9824 168.825 47.0553 168.588 47.2011C168.351 47.3379 168.128 47.4974 167.918 47.6797C167.717 47.8619 167.54 48.0442 167.385 48.2265C167.239 48.4088 167.134 48.5455 167.07 48.6367V57.7968C167.07 57.9153 167.052 58.0566 167.016 58.2207C166.979 58.3847 166.888 58.5397 166.742 58.6855C166.605 58.8313 166.396 58.9544 166.113 59.0547C165.84 59.164 165.462 59.2187 164.979 59.2187C164.495 59.2187 164.113 59.1595 163.83 59.041C163.557 58.9316 163.347 58.7994 163.201 58.6445C163.055 58.4896 162.964 58.33 162.928 58.166C162.891 58.0019 162.873 57.8698 162.873 57.7695V47.2148C162.873 46.9505 162.809 46.7226 162.682 46.5312C162.563 46.3307 162.358 46.2304 162.066 46.2304C161.911 46.2304 161.779 46.2578 161.67 46.3125C161.561 46.3672 161.442 46.4446 161.314 46.5449L161.027 46.2031C161.237 46.0299 161.469 45.8613 161.725 45.6972C161.989 45.5241 162.271 45.3737 162.572 45.2461C162.873 45.1185 163.197 45.0136 163.543 44.9316C163.889 44.8496 164.254 44.8086 164.637 44.8086C165.229 44.8086 165.689 44.9088 166.018 45.1093C166.346 45.3008 166.587 45.5332 166.742 45.8066C166.897 46.08 166.988 46.3672 167.016 46.6679C167.052 46.9596 167.07 47.2057 167.07 47.4062C167.499 46.9231 167.959 46.4902 168.451 46.1074C168.652 45.9433 168.87 45.7838 169.107 45.6289C169.354 45.4739 169.604 45.3372 169.859 45.2187C170.115 45.0911 170.379 44.9909 170.652 44.9179C170.926 44.845 171.199 44.8086 171.473 44.8086C172.001 44.8086 172.452 44.9043 172.826 45.0957C173.2 45.2871 173.501 45.5195 173.729 45.7929C173.956 46.0573 174.12 46.3398 174.221 46.6406C174.33 46.9323 174.385 47.1875 174.385 47.4062C174.822 46.9231 175.283 46.4902 175.766 46.1074C175.966 45.9433 176.185 45.7838 176.422 45.6289C176.659 45.4739 176.905 45.3372 177.16 45.2187C177.424 45.0911 177.689 44.9909 177.953 44.9179C178.227 44.845 178.5 44.8086 178.773 44.8086C179.302 44.8086 179.753 44.9088 180.127 45.1093C180.501 45.3008 180.801 45.556 181.029 45.875C181.257 46.194 181.421 46.554 181.521 46.955C181.631 47.3561 181.686 47.7571 181.686 48.1582V56.6211C181.686 56.7031 181.69 56.7942 181.699 56.8945C181.708 56.9856 181.731 57.0768 181.768 57.1679C181.804 57.25 181.859 57.3183 181.932 57.373C182.014 57.4277 182.118 57.455 182.246 57.455C182.419 57.455 182.574 57.3958 182.711 57.2773C182.848 57.1497 182.975 57.0221 183.094 56.8945L183.422 57.1816C183.294 57.373 183.126 57.5872 182.916 57.8242C182.706 58.0521 182.456 58.2708 182.164 58.4804C181.882 58.6901 181.549 58.8633 181.166 59C180.792 59.1458 180.368 59.2187 179.895 59.2187C179.493 59.2187 179.143 59.164 178.842 59.0547C178.55 58.9544 178.299 58.8177 178.09 58.6445C177.889 58.4622 177.739 58.2526 177.639 58.0156C177.538 57.7695 177.488 57.5097 177.488 57.2363V48.1035C177.488 47.9759 177.47 47.8483 177.434 47.7207C177.397 47.584 177.342 47.4609 177.27 47.3515C177.206 47.2422 177.119 47.1556 177.01 47.0918C176.9 47.0188 176.773 46.9824 176.627 46.9824C176.381 46.9824 176.135 47.0553 175.889 47.2011C175.652 47.3379 175.428 47.4974 175.219 47.6797C175.018 47.8619 174.845 48.0442 174.699 48.2265C174.553 48.4088 174.449 48.5455 174.385 48.6367V57.7968ZM191.447 51.9179C191.447 51.6901 191.374 51.5169 191.229 51.3984C191.083 51.2799 190.896 51.2207 190.668 51.2207C190.349 51.2207 190.044 51.2936 189.752 51.4394C189.469 51.5853 189.219 51.7994 189 52.082C188.781 52.3646 188.608 52.7155 188.48 53.1347C188.353 53.5449 188.289 54.0234 188.289 54.5703C188.289 55.0989 188.326 55.5364 188.398 55.8828C188.48 56.2291 188.585 56.5071 188.713 56.7168C188.85 56.9173 189.005 57.0586 189.178 57.1406C189.351 57.2226 189.533 57.2636 189.725 57.2636C189.962 57.2636 190.185 57.2044 190.395 57.0859C190.604 56.9583 190.786 56.7988 190.941 56.6074C191.096 56.416 191.219 56.2018 191.311 55.9648C191.402 55.7278 191.447 55.4909 191.447 55.2539V51.9179ZM189.273 45.9297C188.964 45.9297 188.676 45.9661 188.412 46.039C188.148 46.1119 187.92 46.2031 187.729 46.3125C187.537 46.4218 187.387 46.5449 187.277 46.6816C187.168 46.8092 187.113 46.9323 187.113 47.0508C187.113 47.1875 187.182 47.2877 187.318 47.3515C187.464 47.4062 187.624 47.4746 187.797 47.5566C187.97 47.6295 188.125 47.7389 188.262 47.8847C188.408 48.0215 188.48 48.2356 188.48 48.5273C188.48 48.7187 188.439 48.8965 188.357 49.0605C188.285 49.2155 188.18 49.3567 188.043 49.4843C187.915 49.6028 187.76 49.6985 187.578 49.7715C187.405 49.8353 187.223 49.8672 187.031 49.8672C186.521 49.8672 186.106 49.694 185.787 49.3476C185.477 49.0013 185.322 48.541 185.322 47.9668C185.322 47.4108 185.468 46.9368 185.76 46.5449C186.051 46.1438 186.43 45.8157 186.895 45.5605C187.368 45.3053 187.902 45.1185 188.494 45C189.087 44.8724 189.679 44.8086 190.271 44.8086C190.982 44.8086 191.661 44.886 192.309 45.041C192.956 45.1959 193.525 45.442 194.018 45.7793C194.519 46.1165 194.915 46.5449 195.207 47.0644C195.508 47.584 195.658 48.2129 195.658 48.9511V56.6758C195.658 56.7578 195.663 56.8489 195.672 56.9492C195.681 57.0494 195.704 57.1406 195.74 57.2226C195.777 57.3047 195.831 57.373 195.904 57.4277C195.977 57.4824 196.082 57.5097 196.219 57.5097C196.383 57.5097 196.533 57.4505 196.67 57.332C196.816 57.2044 196.943 57.0768 197.053 56.9492L197.395 57.2363C197.258 57.4277 197.094 57.6373 196.902 57.8652C196.711 58.0931 196.479 58.3073 196.205 58.5078C195.932 58.7083 195.613 58.8769 195.248 59.0136C194.883 59.1504 194.469 59.2187 194.004 59.2187C193.43 59.2187 192.919 59.0501 192.473 58.7129C192.026 58.3665 191.734 57.8379 191.598 57.1269C191.306 57.5188 191.001 57.847 190.682 58.1113C190.372 58.3756 190.053 58.5898 189.725 58.7539C189.396 58.9179 189.064 59.0364 188.727 59.1093C188.398 59.1823 188.066 59.2187 187.729 59.2187C187.291 59.2187 186.867 59.1504 186.457 59.0136C186.047 58.8769 185.678 58.6627 185.35 58.3711C185.031 58.0703 184.771 57.6829 184.57 57.209C184.379 56.735 184.283 56.1562 184.283 55.4726C184.283 54.6432 184.447 53.9642 184.775 53.4355C185.104 52.9069 185.532 52.4648 186.061 52.1093C186.598 51.7448 187.204 51.4349 187.879 51.1797C188.562 50.9244 189.26 50.6556 189.971 50.373C190.499 50.1634 190.882 49.8535 191.119 49.4433C191.365 49.0241 191.488 48.5957 191.488 48.1582C191.488 47.4837 191.288 46.9459 190.887 46.5449C190.495 46.1347 189.957 45.9297 189.273 45.9297Z" fill="black"/>
</svg>
