<svg width="20" height="20" viewBox="0 0 20 20" fill="none" xmlns="http://www.w3.org/2000/svg">
<path d="M17.4559 6.92083C17.4475 6.28968 17.3293 5.66481 17.1067 5.07416C16.9137 4.57595 16.6188 4.12349 16.241 3.74569C15.8632 3.36788 15.4108 3.07304 14.9126 2.87999C14.3295 2.66113 13.7135 2.54278 13.0909 2.52999C12.2892 2.49416 12.0351 2.48416 10.0001 2.48416C7.96506 2.48416 7.70423 2.48416 6.90839 2.52999C6.28602 2.54287 5.67035 2.66122 5.08756 2.87999C4.58927 3.0729 4.13674 3.3677 3.75892 3.74552C3.3811 4.12335 3.0863 4.57588 2.89339 5.07416C2.67408 5.65677 2.55599 6.27259 2.54423 6.89499C2.50839 7.69749 2.49756 7.95166 2.49756 9.98666C2.49756 12.0217 2.49756 12.2817 2.54423 13.0783C2.55673 13.7017 2.67423 14.3167 2.89339 14.9008C3.08662 15.399 3.38164 15.8513 3.75959 16.229C4.13754 16.6066 4.59011 16.9013 5.08839 17.0942C5.66959 17.3218 6.28537 17.4486 6.90923 17.4692C7.71173 17.505 7.96589 17.5158 10.0009 17.5158C12.0359 17.5158 12.2967 17.5158 13.0926 17.4692C13.7152 17.4569 14.3312 17.3388 14.9142 17.12C15.4123 16.9267 15.8646 16.6318 16.2424 16.254C16.6202 15.8763 16.9151 15.4239 17.1084 14.9258C17.3276 14.3425 17.4451 13.7275 17.4576 13.1033C17.4934 12.3017 17.5042 12.0475 17.5042 10.0117C17.5026 7.97666 17.5026 7.71833 17.4559 6.92083ZM9.99506 13.835C7.86673 13.835 6.14256 12.1108 6.14256 9.98249C6.14256 7.85416 7.86673 6.12999 9.99506 6.12999C11.0168 6.12999 11.9967 6.53588 12.7192 7.25837C13.4417 7.98085 13.8476 8.96075 13.8476 9.98249C13.8476 11.0042 13.4417 11.9841 12.7192 12.7066C11.9967 13.4291 11.0168 13.835 9.99506 13.835ZM14.0009 6.88583C13.8829 6.88594 13.766 6.86278 13.657 6.81767C13.5479 6.77256 13.4489 6.7064 13.3654 6.62296C13.282 6.53952 13.2158 6.44044 13.1707 6.3314C13.1256 6.22236 13.1024 6.1055 13.1026 5.98749C13.1026 5.86958 13.1258 5.75282 13.1709 5.64388C13.216 5.53494 13.2822 5.43595 13.3656 5.35257C13.4489 5.26919 13.5479 5.20305 13.6569 5.15793C13.7658 5.1128 13.8826 5.08958 14.0005 5.08958C14.1184 5.08958 14.2352 5.1128 14.3441 5.15793C14.453 5.20305 14.552 5.26919 14.6354 5.35257C14.7188 5.43595 14.7849 5.53494 14.83 5.64388C14.8752 5.75282 14.8984 5.86958 14.8984 5.98749C14.8984 6.48416 14.4967 6.88583 14.0009 6.88583Z" fill="white" fill-opacity="0.7"/>
<path d="M9.99505 12.485C11.3771 12.485 12.4976 11.3646 12.4976 9.98248C12.4976 8.60039 11.3771 7.47998 9.99505 7.47998C8.61296 7.47998 7.49255 8.60039 7.49255 9.98248C7.49255 11.3646 8.61296 12.485 9.99505 12.485Z" fill="white" fill-opacity="0.7"/>
</svg>
