<svg width="20" height="20" viewBox="0 0 20 20" fill="none" xmlns="http://www.w3.org/2000/svg">
<path d="M4.15243 5.9975C5.15943 5.9975 5.97577 5.18116 5.97577 4.17416C5.97577 3.16716 5.15943 2.35083 4.15243 2.35083C3.14544 2.35083 2.3291 3.16716 2.3291 4.17416C2.3291 5.18116 3.14544 5.9975 4.15243 5.9975Z" fill="white" fill-opacity="0.7"/>
<path d="M7.69756 7.37918V17.495H10.8384V12.4925C10.8384 11.1725 11.0867 9.89418 12.7234 9.89418C14.3376 9.89418 14.3576 11.4033 14.3576 12.5758V17.4958H17.5001V11.9483C17.5001 9.22335 16.9134 7.12918 13.7284 7.12918C12.1992 7.12918 11.1742 7.96835 10.7551 8.76251H10.7126V7.37918H7.69756ZM2.57922 7.37918H5.72506V17.495H2.57922V7.37918Z" fill="white" fill-opacity="0.7"/>
</svg>
