<svg width="52" height="52" viewBox="0 0 52 52" fill="none" xmlns="http://www.w3.org/2000/svg">
<path d="M35.4727 25.1788C38.8744 25.1788 41.1667 27.5448 41.1667 31.0505C41.1667 34.2052 38.5321 36.8333 34.9636 36.8333C31.0549 36.8333 28.1667 33.6787 28.1667 28.86C28.1667 17.9075 36.1531 13.5265 41.1667 13V17.8187C37.7672 18.4318 33.9452 21.8487 33.7741 25.6187C33.9452 25.532 34.6234 25.1788 35.4727 25.1788Z" fill="#0D8BF6"/>
<path d="M18.1415 25.1788C21.5389 25.1788 23.8334 27.5448 23.8334 31.0505C23.8334 34.2052 21.1987 36.8333 17.6302 36.8333C13.7215 36.8333 10.8334 33.6787 10.8334 28.86C10.8334 17.9075 18.8197 13.5265 23.8334 13V17.8187C20.4339 18.4318 16.6119 21.8487 16.4407 25.6187C16.6119 25.532 17.29 25.1788 18.1415 25.1788Z" fill="#0D8BF6"/>
</svg>
